<svg width="200" height="200" xmlns="http://www.w3.org/2000/svg">
  <!-- Background Circle -->
  <circle cx="100" cy="100" r="95" fill="#4F46E5" stroke="#312E81" stroke-width="3"/>
  
  <!-- Gear Icon (Operations) -->
  <g transform="translate(100, 80)">
    <circle cx="0" cy="0" r="25" fill="#FFF" opacity="0.9"/>
    <path d="M 0,-30 L 5,-25 L 5,-15 L 0,-10 L -5,-15 L -5,-25 Z" fill="#FFF" opacity="0.9"/>
    <path d="M 30,0 L 25,5 L 15,5 L 10,0 L 15,-5 L 25,-5 Z" fill="#FFF" opacity="0.9"/>
    <path d="M 0,30 L -5,25 L -5,15 L 0,10 L 5,15 L 5,25 Z" fill="#FFF" opacity="0.9"/>
    <path d="M -30,0 L -25,-5 L -15,-5 L -10,0 L -15,5 L -25,5 Z" fill="#FFF" opacity="0.9"/>
    <circle cx="0" cy="0" r="12" fill="#312E81"/>
  </g>
  
  <!-- AI Brain/Network Icon -->
  <g transform="translate(100, 120)">
    <circle cx="-15" cy="5" r="8" fill="#FCD34D" stroke="#F59E0B" stroke-width="2"/>
    <circle cx="15" cy="5" r="8" fill="#FCD34D" stroke="#F59E0B" stroke-width="2"/>
    <circle cx="0" cy="-10" r="8" fill="#FCD34D" stroke="#F59E0B" stroke-width="2"/>
    <line x1="-15" y1="5" x2="15" y2="5" stroke="#F59E0B" stroke-width="2"/>
    <line x1="-15" y1="5" x2="0" y2="-10" stroke="#F59E0B" stroke-width="2"/>
    <line x1="15" y1="5" x2="0" y2="-10" stroke="#F59E0B" stroke-width="2"/>
  </g>
  
  <!-- Text: OpsPilot -->
  <text x="100" y="175" font-family="Arial, sans-serif" font-size="24" font-weight="bold" fill="#FFF" text-anchor="middle">OpsPilot</text>
</svg>
